<svg xmlns:x="http://ns.adobe.com/Extensibility/1.0/" xmlns:i="http://ns.adobe.com/AdobeIllustrator/10.0/" xmlns:graph="http://ns.adobe.com/Graphs/1.0/" xmlns="http://www.w3.org/2000/svg" xmlns:xlink="http://www.w3.org/1999/xlink" xmlns:a="http://ns.adobe.com/AdobeSVGViewerExtensions/3.0/" version="1.1" x="0px" y="0px" viewBox="0 0 100 125" enable-background="new 0 0 100 100" xml:space="preserve"><metadata><?xpacket begin="&#65279;" id="W5M0MpCehiHzreSzNTczkc9d"?><x:xmpmeta xmlns:x="adobe:ns:meta/" x:xmptk="Adobe XMP Core 5.5-c014 79.151739, 2013/04/03-12:12:15        "/><?xpacket end="w"?></metadata><path d="M89.4697266,64.699707c-0.0091553-0.0604248-0.0195923-0.1204834-0.0343628-0.1801147  c-0.0161743-0.0650024-0.0368042-0.1279907-0.059082-0.1903687c-0.0219116-0.0612793-0.0454102-0.1220093-0.0734863-0.1814575  c-0.0269165-0.0567627-0.0575562-0.111145-0.0895386-0.164856c-0.0357056-0.0600586-0.0739746-0.1188965-0.1166382-0.1759644  c-0.0178223-0.0238647-0.0297241-0.050293-0.0487671-0.0735474c-0.0205078-0.0250244-0.0457764-0.0432739-0.0671997-0.0670166  c-0.0476685-0.0528564-0.0975342-0.102417-0.1494141-0.1489868c-0.0463257-0.041626-0.0938721-0.081604-0.1439819-0.1187744  c-0.0535889-0.0397339-0.1091309-0.0756836-0.1657715-0.1094971c-0.0540161-0.0323486-0.1089478-0.0629883-0.1660767-0.0901489  c-0.0596924-0.0283203-0.1207886-0.0524292-0.1826172-0.074585c-0.0598755-0.0215454-0.1206055-0.0410156-0.1829834-0.0568237  c-0.0618896-0.015625-0.1244507-0.0274048-0.187439-0.0370483c-0.0682983-0.010437-0.1375732-0.0176392-0.2080078-0.0209961  C87.562439,63.0079956,87.5323486,63,87.5,63h-8V17.5c0-0.0244751-0.0063477-0.0471802-0.0072021-0.0714111  c-0.0012207-0.0341187-0.00354-0.0678101-0.0065308-0.1019287c-0.0046997-0.0534058-0.0108032-0.105896-0.0197144-0.1585693  c-0.0079956-0.0478516-0.0175781-0.0946045-0.0289307-0.1412354c-0.0064087-0.0259399-0.0139771-0.0515137-0.0214233-0.0773315  c-0.0147705-0.0513306-0.0308838-0.1015015-0.0496216-0.1514893c-0.0195923-0.052063-0.0411377-0.102417-0.0648804-0.1522827  c-0.005188-0.0109863-0.0072021-0.022522-0.0126343-0.0334473c-0.0046387-0.0093384-0.0115356-0.0167236-0.0162964-0.0259399  c-0.0238647-0.0463867-0.0495605-0.0912476-0.0770264-0.1357422c-0.0305176-0.0491333-0.0631714-0.0957031-0.0976563-0.1419067  c-0.0135498-0.0183105-0.0258789-0.0374756-0.0400391-0.0551758c-0.0305176-0.038269-0.0631104-0.0742798-0.0966187-0.1104126  c-0.0393066-0.0422974-0.0806885-0.0814819-0.1234741-0.1202393c-0.0183716-0.0166626-0.0354614-0.0344849-0.0543213-0.050354  c-0.0350342-0.0294189-0.0713501-0.0569458-0.1087036-0.0841064c-0.0476074-0.03479-0.09729-0.0657349-0.1479492-0.0963135  c-0.0234375-0.0140991-0.0462036-0.0286865-0.0701904-0.041748c-0.0218506-0.0119629-0.0397949-0.0281982-0.0622559-0.0394287  C77.96875,15.4985352,67.7109375,10.5,45,10.5s-32.96875,4.9985352-33.3945313,5.2109375  c-0.0169067,0.0084839-0.0303345,0.020813-0.046875,0.0296631c-0.0351563,0.0187378-0.0684814,0.039917-0.1025391,0.06073  c-0.0447998,0.0275879-0.0882568,0.0558472-0.1306152,0.086792c-0.0316772,0.0230713-0.0637207,0.045105-0.093689,0.0697632  c-0.0300903,0.0245972-0.0574951,0.052124-0.0861816,0.0786133c-0.0372314,0.0344238-0.0726929,0.0696411-0.1071777,0.1067505  c-0.027771,0.0299683-0.0562744,0.0587769-0.0820313,0.090271c-0.0239258,0.0291138-0.045166,0.0603638-0.0675659,0.0911255  c-0.0303955,0.0415649-0.0584717,0.0841064-0.0856323,0.1279907c-0.0217896,0.0355225-0.0438232,0.0703735-0.0632935,0.1071167  c-0.008667,0.0161743-0.0206909,0.0292358-0.0289307,0.0457153c-0.0092163,0.0184937-0.0129395,0.0380859-0.0215454,0.0567017  c-0.0214233,0.0461426-0.0397339,0.0932617-0.0576172,0.1412354c-0.0140381,0.0377808-0.0274658,0.0751953-0.0391846,0.1138306  c-0.0127563,0.041687-0.0250854,0.0828857-0.0349731,0.124939c-0.010498,0.0444946-0.0176392,0.0895996-0.0250854,0.1352539  c-0.0061646,0.0376587-0.0115967,0.0748901-0.015564,0.112915c-0.0053101,0.0506592-0.0096436,0.100769-0.0111084,0.1513062  C10.505249,17.4614868,10.5,17.4799805,10.5,17.5v60c0,0.0401611,0.0095215,0.0776978,0.0118408,0.1172485  c0.0042725,0.0725098,0.0098267,0.1444702,0.0216064,0.2146606c0.0106812,0.0628052,0.0262451,0.1243286,0.0427856,0.18573  c0.0168457,0.0625,0.0346069,0.1243896,0.0571899,0.1843262c0.0229492,0.0609131,0.050354,0.119873,0.0791016,0.1784058  c0.0285034,0.0576782,0.0579834,0.114624,0.0916748,0.1689453c0.0327759,0.0531616,0.0696411,0.1036987,0.1074829,0.1538086  c0.0401611,0.0529785,0.081543,0.1049194,0.126709,0.1535645c0.0427246,0.0460205,0.0891113,0.0888062,0.1364746,0.1309814  c0.0484619,0.0432129,0.0976563,0.0855103,0.1502075,0.1239014c0.0560913,0.0408325,0.1164551,0.0770264,0.1776123,0.1124268  c0.0354004,0.0205078,0.0657349,0.0465088,0.1027832,0.0650635C12.03125,79.5014648,22.2890625,84.5,45,84.5  c4.9067383,0,9.2294312-0.2339478,13-0.6019287V87.5c0,0.0292969,0.0073853,0.0566406,0.008606,0.0856323  c0.0031738,0.0728149,0.0109863,0.144104,0.0216675,0.2146606c0.0091553,0.0604248,0.0195923,0.1204834,0.0343628,0.1801147  c0.0161743,0.0650024,0.0368042,0.1279907,0.059082,0.1903687c0.0219116,0.0612793,0.0454102,0.1220093,0.0734863,0.1814575  c0.0269165,0.0567627,0.0575562,0.111145,0.0895386,0.164856c0.0357056,0.0600586,0.0739746,0.1188965,0.1166382,0.1759644  c0.0178223,0.0238647,0.0297241,0.050293,0.0487671,0.0735474c0.0181885,0.0221558,0.0412598,0.0372925,0.0601807,0.0584717  c0.060791,0.0682373,0.1257935,0.130127,0.1934814,0.1881104c0.0405884,0.034729,0.0802612,0.0704956,0.1235962,0.1019287  c0.0737305,0.0535278,0.1519165,0.0980225,0.2311401,0.1403198c0.0426025,0.0228882,0.0829468,0.0492554,0.1273193,0.0690918  c0.0964355,0.0428467,0.1968384,0.0733643,0.2980347,0.1003418c0.0324097,0.008667,0.0623779,0.022644,0.0953979,0.0296631  C59.7164917,89.4833984,59.8562012,89.5,60,89.5h0.0009766H87.5c1.1044922,0,2-0.8955078,2-2V65  c0-0.0292969-0.0073853-0.0566406-0.008606-0.0856323C89.4882202,64.8415527,89.4804077,64.7702637,89.4697266,64.699707z M45,14.5  c12.7149658,0,21.3673706,1.6389771,26.3624878,2.999939C66.3676758,18.8609619,57.7161255,20.5,45,20.5  c-12.7149658,0-21.3673706-1.6389771-26.3624878-2.999939C23.6323242,16.1390381,32.2838745,14.5,45,14.5z M14.5,20.4348755  C18.9957275,21.9715576,28.8441162,24.5,45,24.5s26.0042725-2.5284424,30.5-4.0651245v10.737793  C72.3720093,32.3755493,62.5554199,35.5,45,35.5c-17.5562744,0-27.3724976-3.1246948-30.5-4.3274536V20.4348755z M14.5,35.4348755  C18.9957275,36.9715576,28.8441162,39.5,45,39.5s26.0042725-2.5284424,30.5-4.0651245v10.737793  C72.3720093,47.3755493,62.5554199,50.5,45,50.5c-17.5562744,0-27.3724976-3.1246948-30.5-4.3274536V35.4348755z M58,79.8684082  C54.2616577,80.2509155,49.9407959,80.5,45,80.5c-17.5562744,0-27.3724976-3.1246948-30.5-4.3274536V65.4348755  C18.9957275,66.9715576,28.8441162,69.5,45,69.5c4.9067383,0,9.2294312-0.2339478,13-0.6019287V79.8684082z M60,63  c-1.05896,0-1.9168701,0.8257446-1.9865723,1.8670044C54.2719727,65.2503052,49.9467773,65.5,45,65.5  c-17.5562744,0-27.3724976-3.1246948-30.5-4.3274536V50.4348755C18.9957275,51.9715576,28.8441162,54.5,45,54.5  s26.0042725-2.5284424,30.5-4.0651245v10.737793C74.3649292,61.6091309,72.3421631,62.2985229,69.3953857,63H60z M62,79.3829956  V68.4320679V67h7.9400024H75.5h4h2.3971558L79.5,68.9613037l-4,3.2727051l-7.4118042,6.064209L62,83.27948V79.3829956z M85.5,85.5  H65.6028442l4.255127-3.4814453L75.5,77.4023438l2.2924805-1.8756714L79.5,74.1296387l6-4.9091187V85.5z"/></svg>
