<svg xmlns="http://www.w3.org/2000/svg" data-name="Layer 101" viewBox="0 0 100 125" x="0px" y="0px"><title>98. Drop Package</title><path d="M70.86,23.89h0l-4.13-3.57L53.94,9.25a1,1,0,0,0-1.17-.1L42.29,15.41s0,.05-.08.07a1.92,1.92,0,0,0-.17.13L17,44.62a1,1,0,0,0,.1,1.41L35.41,61.91l1.14,3.76-11.21,1a1,1,0,0,0-.41,1.86l7.64,4.4L25,77.43a1,1,0,0,0-.46,1.09,1,1,0,0,0,.89.77l11.22.85-1.85,6.4a1,1,0,0,0,.26,1,1,1,0,0,0,1,.23l10.36-3.5,5,6.35a1,1,0,0,0,.79.38h0a1,1,0,0,0,.79-.39l5-6.41,10.41,3.36a1,1,0,0,0,1.26-1.24l-1.94-6.38L79,79a1,1,0,0,0,.41-1.87l-7.63-4.4,7.57-4.5a1,1,0,0,0,.47-1.08,1,1,0,0,0-.9-.77l-11.22-.86,1.86-6.4a1,1,0,0,0-.27-1,1.51,1.51,0,0,0-.26-.18L78.37,47a.64.64,0,0,0,.1-.18.71.71,0,0,0,.07-.09l4.68-11.27A1,1,0,0,0,83,34.35Zm-2,.9L63,32.38l-4.2-3.63,6.67-6.91ZM61.7,33.93l-6.22,7.2-4.29-3.72,6.22-7.19ZM53.18,11.24l10.74,9.29-6.68,6.91-12.74-11ZM75.56,68.08l-6.32,3.75a1,1,0,0,0-.49.87,1,1,0,0,0,.5.86l6.37,3.67-9.28.83a1,1,0,0,0-.74.44,1,1,0,0,0-.13.85l1.74,5.72-9.25-3a1,1,0,0,0-1.1.34l-4.61,6-4.69-5.9a1,1,0,0,0-.79-.38,1.25,1.25,0,0,0-.32.05l-9.21,3.11,1.67-5.74a1,1,0,0,0-.14-.85,1,1,0,0,0-.75-.43l-9.29-.71,6.33-3.75a1,1,0,0,0,.48-.87,1,1,0,0,0-.5-.86l-6.37-3.67L38,67.55a1,1,0,0,0,.74-.43,1,1,0,0,0,.13-.85l-.58-1.91L51.87,76.15a1,1,0,0,0,.65.24,1,1,0,0,0,.76-.35L66.77,60.45l.28-.1L65.39,66.1a1,1,0,0,0,.13.84,1,1,0,0,0,.75.43ZM52.42,74,19.12,45.17,42.9,17.67l13,11.24-6.88,8a1,1,0,0,0,.1,1.41l5.81,5a1,1,0,0,0,.65.25h.07a1,1,0,0,0,.69-.34l6.87-7.95,13,11.24Zm24.8-29.26-12.74-11,5.87-7.6,10.74,9.3Z"/></svg>
