<svg xmlns="http://www.w3.org/2000/svg" data-name="Layer 1" viewBox="0 0 100 125" x="0px" y="0px"><title>19</title><g data-name="Group"><path data-name="Compound Path" d="M80.3,34C80.3,16.5,67,2.7,50,2.7h0C33,2.7,19.7,16.5,19.7,34a1,1,0,0,0,.3.7L43.7,59.2H38.8a6,6,0,0,0-5.3,3.1l-4.2,7.7a1,1,0,0,0-.1.5V91.3a6,6,0,0,0,6,6H64.7a6,6,0,0,0,6-6V70.5a1,1,0,0,0-.1-.5l-4.2-7.7a6,6,0,0,0-5.3-3.1H56.3L80,34.7A1,1,0,0,0,80.3,34Zm-2-1H62.9c-.2-12.8-3.2-23.3-7.7-27.8C68.2,7.6,77.8,18.9,78.3,33ZM49.1,59.2,39.5,35H60.5L50.9,59.2ZM39.1,33C39.3,15.5,44.8,4.7,50,4.7h0c5.2,0,10.7,10.8,10.9,28.3ZM44.8,5.2c-4.5,4.6-7.5,15-7.7,27.8H21.7C22.2,18.9,31.8,7.6,44.8,5.2ZM23.1,35H37.4l9.6,24.2h-.4ZM35.3,63.3a4,4,0,0,1,3.5-2.1h6.8L49,64.7v4.8H31.9ZM54.2,95.3H45.8V89.6a4.2,4.2,0,0,1,8.3,0Zm10.6,0H56.2V89.6a6.2,6.2,0,0,0-12.3,0v5.7H35.3a4,4,0,0,1-4-4V71.5H68.7V91.3A4,4,0,0,1,64.7,95.3Zm-3.6-34a4,4,0,0,1,3.5,2.1l3.4,6.2H51V64.7l3.3-3.4Zm-8.1-2L62.6,35H76.9L53.5,59.2Z"/></g></svg>
