<svg xmlns="http://www.w3.org/2000/svg" viewBox="0 0 32 40" fill="none" x="0px" y="0px"><path fill-rule="evenodd" clip-rule="evenodd" d="M27 0C29.7614 0 32 2.23858 32 5V27C32 29.7614 29.7614 32 27 32H5C2.23858 32 0 29.7614 0 27V5C0 2.23858 2.23857 0 5 0H27ZM29 25C29 24.4477 28.5523 24 28 24L14 24C13.4477 24 13 24.4477 13 25C13 25.5523 13.4477 26 14 26L28 26C28.5523 26 29 25.5523 29 25ZM28 15C28.5523 15 29 15.4477 29 16C29 16.5523 28.5523 17 28 17L14 17C13.4477 17 13 16.5523 13 16C13 15.4477 13.4477 15 14 15L28 15ZM29 7C29 6.44772 28.5523 6 28 6L14 6C13.4477 6 13 6.44772 13 7C13 7.55229 13.4477 8 14 8L28 8C28.5523 8 29 7.55228 29 7ZM7.67354 6.07295L7 4L6.32646 6.07295H4.14683L5.91019 7.3541L5.23664 9.42705L7 8.1459L8.76336 9.42705L8.08981 7.3541L9.85317 6.07295H7.67354ZM7 13L7.67354 15.0729H9.85317L8.08981 16.3541L8.76336 18.4271L7 17.1459L5.23664 18.4271L5.91019 16.3541L4.14683 15.0729H6.32646L7 13ZM7.67354 24.0729L7 22L6.32646 24.0729H4.14683L5.91019 25.3541L5.23664 27.4271L7 26.1459L8.76336 27.4271L8.08981 25.3541L9.85317 24.0729H7.67354Z" fill="black"/></svg>
