<svg xmlns="http://www.w3.org/2000/svg" data-name="Layer 1" viewBox="0 0 512 640" x="0px" y="0px"><title>Profit</title><path d="M85.11,457.56a8,8,0,1,0-7.76-8A7.87,7.87,0,0,0,85.11,457.56Z"/><path d="M351.25,285.13l-.14.08-14.89,8.22a47.84,47.84,0,0,1,19.66,8.7l29.16-16C374.67,279.74,361.49,279.1,351.25,285.13Z"/><path d="M373.09,325.93l3.67-2,57-31.23c-6.69-7.06-17.16-9.86-24.89-5.92l-44,24.05A49.67,49.67,0,0,1,373.09,325.93Z"/><path d="M22.76,298.08,44.25,477H134L80.32,298.08Zm82.1,151.51a19.76,19.76,0,1,1-19.75-20A19.88,19.88,0,0,1,104.86,449.59Z"/><path d="M453.06,295.85l-70.58,38.67-7,3.72c.08,1.14.14,2.29.14,3.45a6,6,0,0,1-6,6h-.28l-48.72-2.24a231.8,231.8,0,0,0-42.78,2,6,6,0,1,1-1.67-11.88,243.64,243.64,0,0,1,45-2.11l41.92,1.92c-2.95-17.48-17.94-30.82-35.94-30.82H270.07a73.37,73.37,0,0,1-32.21-7.5L232,294.17a87.51,87.51,0,0,0-92.05,9l-14,12.69a61.5,61.5,0,0,1-23.69,13.34l28.38,94.53,39.79-25.55.28-.17a37.34,37.34,0,0,1,27.61-3.79l85.66,16a97.17,97.17,0,0,0,60.5-8.55l143.15-99.82A28,28,0,0,0,453.06,295.85Z"/><path d="M298.17,106.74h-48a4.72,4.72,0,1,0,0,9.43H321.4a4.72,4.72,0,0,0,0-9.43Z"/><path d="M218.49,44.55a87.69,87.69,0,0,1,22.69,22.21,98.25,98.25,0,0,1,13.54,28h18.45c-2.43-6.75-6.19-16-8.28-19.42A6,6,0,0,1,275.07,69c3.17,5.09,8.28,18.15,10.78,25.77h6.21c.3-6.86,2.1-17.39,9.38-25.85a37.29,37.29,0,0,1,10.25-8.29,6,6,0,1,1,5.82,10.5,25.24,25.24,0,0,0-7,5.62c-4.87,5.65-6.19,13-6.47,18H320.3A169.11,169.11,0,0,1,335,67.8c6.39-9.46,12.47-14.26,17.83-18.5,1.3-1,2.56-2,3.79-3-7.7-.33-15.06-4.68-20.58-7.94a50,50,0,0,0-5-2.73c-3.26-1.33-5.17-.54-9.26,3.83-3.23,3.45-9.68,6.43-11.23,7-.58.23-1.15.43-1.7.59-9.93,2.94-17.2,1.21-25.1-6-3.67-3.33-6.83-4.11-9.66-2.4a27.64,27.64,0,0,0-1.74,3.5,57,57,0,0,1-2.7,5.45c-1.66,2.84-4.23,6.2-9.51,7.07-5.76,1-9.31-1.22-12.44-3.54l-.91-.68a61.32,61.32,0,0,0-13-7.63l-.95-.45c-.68-.33-1.45-.7-2.19-1-2.42-.95-10.33-1.23-13-.47l-.28.09a2,2,0,0,0-.17.44A2.91,2.91,0,0,0,218.49,44.55Z"/><path d="M258.4,263.48H313a64.08,64.08,0,0,0,51.17-25.22,62.82,62.82,0,0,0,11.07-54.79c-.15-.57-.31-1.13-.47-1.7-7.38-25.68-24.46-44.37-49.42-54.1a16.48,16.48,0,0,1-3.94.5H250.18c-.47,0-.93,0-1.38-.07-.82.41-1.74.85-2.78,1.35-12.09,5.84-37.25,18-47.7,47.07-.49,1.38-1,2.79-1.4,4.19a63.07,63.07,0,0,0,9.64,56.58A63.79,63.79,0,0,0,258.4,263.48ZM287.75,148c26.84,0,48.67,21.49,48.67,47.91s-21.83,47.9-48.67,47.9-48.67-21.49-48.67-47.9S260.91,148,287.75,148Z"/><path d="M287.75,231.81c20.22,0,36.67-16.1,36.67-35.9S308,160,287.75,160s-36.67,16.11-36.67,35.91S267.53,231.81,287.75,231.81Zm1.71-30.57-.17-.1h0l-.37-.21a4.71,4.71,0,0,0-.47-.26l-.72-.28-.15-.06-.5-.14-1.69-.33c-7.34-1.43-12.52-7.31-12.62-14.31a16.63,16.63,0,0,1,4.7-12,14.19,14.19,0,0,1,4.93-3.12v-.36a6,6,0,0,1,12,0v.28a17,17,0,0,1,10.83,11.61l-11.67,2.78,0,.12a4.83,4.83,0,0,0-4.85-3.45,3.92,3.92,0,0,0-2.9.73,4.84,4.84,0,0,0-1.07,3.26c0,1,.78,2.29,2.91,2.7l1.72.34a16.17,16.17,0,0,1,1.72.45c.34.1.68.22,1,.35l.68.26c.35.14.68.29,1,.45.59.3.78.41,1.16.63l.39.23.3.19c2,1.24,8.73,5.88,9.06,13.79a15,15,0,0,1-4.25,11.65,16.26,16.26,0,0,1-6.07,3.73v0a6,6,0,0,1-12,.11c-5-1.76-10.22-5.93-11-12.56a6,6,0,1,1,11.92-1.33c.17,1.53,3.1,2.82,4.25,2.87a6.43,6.43,0,0,0,4.36-1.36c.23-.23.83-.83.75-2.66C292.67,203.73,290.74,202,289.46,201.24Z"/></svg>
