<svg xmlns="http://www.w3.org/2000/svg" viewBox="0 0 28 36.25" x="0px" y="0px"><title>Asset 468</title><g data-name="Layer 2"><g data-name="Layer 2"><path d="M19.3,22.78a.51.51,0,0,1-.36-.15l-1.57-1.57a.5.5,0,0,1,0-.71l7.88-7.88a1.65,1.65,0,0,1,2.28,0,1.62,1.62,0,0,1,0,2.29l-7.88,7.87A.5.5,0,0,1,19.3,22.78Zm-.87-2.08.87.87,7.52-7.52a.62.62,0,0,0,0-.87.63.63,0,0,0-.87,0Z"/><path d="M16.14,24.35a.52.52,0,0,1-.35-.14.5.5,0,0,1-.09-.58l1.57-3.15a.54.54,0,0,1,.37-.27.49.49,0,0,1,.43.14l1.58,1.58a.49.49,0,0,1,.14.43.54.54,0,0,1-.27.37L16.37,24.3A.46.46,0,0,1,16.14,24.35Zm1.72-2.8-.6,1.19,1.19-.6Z"/><path d="M26.39,15.69a.51.51,0,0,1-.36-.15L24.46,14a.5.5,0,0,1,0-.71.5.5,0,0,1,.7,0l1.58,1.58a.5.5,0,0,1-.35.85Z"/><path d="M25.08,17a.51.51,0,0,1-.36-.15l-1.57-1.57a.5.5,0,0,1,0-.71.5.5,0,0,1,.7,0l1.58,1.58a.5.5,0,0,1-.35.85Z"/><path d="M19.12,29H1.88A1.88,1.88,0,0,1,0,27.12V1.88A1.88,1.88,0,0,1,1.88,0H12.93a1.86,1.86,0,0,1,1.33.55l6.19,6.19A1.9,1.9,0,0,1,21,8.07V14.5a.5.5,0,0,1-1,0V8.07a.87.87,0,0,0-.26-.62L13.55,1.26A.87.87,0,0,0,12.93,1h-11A.87.87,0,0,0,1,1.88V27.12a.87.87,0,0,0,.88.88H19.12a.87.87,0,0,0,.88-.88V24.5a.5.5,0,0,1,1,0v2.62A1.88,1.88,0,0,1,19.12,29Z"/><path d="M19.9,8H13.75A.75.75,0,0,1,13,7.25V1.1a.73.73,0,0,1,.46-.69.74.74,0,0,1,.82.16l6.15,6.15a.74.74,0,0,1,.16.82A.73.73,0,0,1,19.9,8Zm-.18-.57h0ZM14,7h5.29L14,1.71Z"/><path d="M11.5,5h-9a.5.5,0,0,1,0-1h9a.5.5,0,0,1,0,1Z"/><path d="M11.5,8h-9a.5.5,0,0,1,0-1h9a.5.5,0,0,1,0,1Z"/><path d="M18.5,11H2.5a.5.5,0,0,1,0-1h16a.5.5,0,0,1,0,1Z"/><path d="M18.5,14H2.5a.5.5,0,0,1,0-1h16a.5.5,0,0,1,0,1Z"/><path d="M16.5,17H2.5a.5.5,0,0,1,0-1h14a.5.5,0,0,1,0,1Z"/><path d="M6.5,20h-4a.5.5,0,0,1,0-1h4a.5.5,0,0,1,0,1Z"/><path d="M6.5,26a.48.48,0,0,1-.26-.07.51.51,0,0,1-.17-.69L7,23.78,5.28,23A.5.5,0,0,1,5.5,22H8l1.05-1.76A.52.52,0,0,1,9.54,20a.51.51,0,0,1,.42.31L10.64,22H12.5a.5.5,0,0,1,.5.5v.88l.05-.1a.52.52,0,0,1,.9,0l.69,1.38,1.51-1.51a.49.49,0,0,1,.7.7l-2,2a.46.46,0,0,1-.43.14.49.49,0,0,1-.37-.27l-.55-1.1L13,25.72A.5.5,0,0,1,12,25.5a.52.52,0,0,1-.16.37.5.5,0,0,1-.56.08L7.84,24.23l-.91,1.53A.52.52,0,0,1,6.5,26ZM11,23,12,25.31a.41.41,0,0,1,0,.19V23Zm-2.68.37,2.19,1.09L10,23H8.58ZM9.18,22h.38l-.15-.38Z"/></g></g><text x="0" y="44" fill="#000000" font-size="5px" font-weight="bold" font-family="'Helvetica Neue', Helvetica, Arial-Unicode, Arial, Sans-serif">Created by achmad firdaus</text><text x="0" y="49" fill="#000000" font-size="5px" font-weight="bold" font-family="'Helvetica Neue', Helvetica, Arial-Unicode, Arial, Sans-serif">from the Noun Project</text></svg>