<svg xmlns="http://www.w3.org/2000/svg" xmlns:xlink="http://www.w3.org/1999/xlink" version="1.1" x="0px" y="0px" viewBox="0 0 68 85" enable-background="new 0 0 68 68" xml:space="preserve"><g><path d="M21.5,27.3l9.4-3.4V19L26,14.9c-0.1-0.1-0.3-0.2-0.5-0.1l-4,1.5V27.3z"/><path d="M36.9,23.8l9.4,3.3V16.6l-4.1-1.5c-0.2-0.1-0.3,0-0.5,0.1l-4.8,4V23.8z"/><path d="M65.5,23.9c0-0.2-0.2-0.3-0.3-0.4l-12.9-4.7v10.5l2.8,1L34,39.2l-21.1-8.9l2.6-0.9V18.7L2.8,23.5c-0.2,0.1-0.3,0.2-0.3,0.4   c0,0.2,0.1,0.4,0.2,0.5l8.8,6l-5.3,9.3c-0.1,0.1-0.1,0.3,0,0.4c0,0.1,0.2,0.2,0.3,0.3l22,9.2c0.2,0.1,0.5,0,0.6-0.2l4.9-8.6   l4.9,8.6c0.1,0.2,0.3,0.3,0.6,0.2l22-9.2c0.1-0.1,0.2-0.2,0.3-0.3c0-0.1,0-0.3,0-0.4l-5.3-9.3l8.8-6C65.4,24.3,65.5,24.1,65.5,23.9   z"/><path d="M12.7,12.3h3.8v17.1c0,0.3,0.2,0.5,0.5,0.5h3c0.3,0,0.5-0.2,0.5-0.5V12.3h3.8c0.3,0,0.5-0.2,0.5-0.5c0-0.2-0.1-0.3-0.2-0.4   l-5.7-5.7c-0.1-0.1-0.2-0.2-0.3-0.2s-0.3,0.1-0.3,0.2l-5.8,5.8c-0.2,0.1-0.2,0.4-0.1,0.5C12.4,12.2,12.5,12.3,12.7,12.3z"/><path d="M28.1,9.3h3.8v20.1c0,0.3,0.2,0.5,0.5,0.5h3c0.3,0,0.5-0.2,0.5-0.5V9.3h3.8c0.3,0,0.5-0.2,0.5-0.5c0-0.2-0.1-0.3-0.2-0.4   l-5.7-5.7c-0.1-0.1-0.2-0.2-0.4-0.2c-0.1,0-0.3,0.1-0.3,0.2l-5.8,5.8c-0.1,0.1-0.2,0.4-0.1,0.5C27.8,9.2,27.9,9.3,28.1,9.3z"/><path d="M43.5,12.3h3.8v17.1c0,0.3,0.2,0.5,0.5,0.5h3c0.3,0,0.5-0.2,0.5-0.5V12.3h3.8c0.3,0,0.5-0.2,0.5-0.5c0-0.2-0.1-0.3-0.2-0.4   l-5.7-5.7c-0.1-0.1-0.2-0.2-0.3-0.2S49,5.6,49,5.7l-5.8,5.8C43,11.6,43,11.8,43.1,12C43.2,12.2,43.3,12.3,43.5,12.3z"/><path d="M28.1,50.5l-16.6-7v12.3c0,0.2,0.1,0.4,0.3,0.5l21.8,9.1v-22l-3.7,6.4C29.6,50.4,28.9,50.8,28.1,50.5z"/><path d="M38.1,49.9l-3.5-6.1v21.6l21.6-9.1c0.2-0.1,0.3-0.3,0.3-0.5V43.6l-16.6,7C39.8,50.5,38.7,50.9,38.1,49.9z"/></g></svg>
