<svg xmlns="http://www.w3.org/2000/svg" data-name="Layer 1" viewBox="0 0 100 125" x="0px" y="0px"><title>UI2</title><polygon points="49.77 16.59 16.75 34.15 0 25.51 33.16 7.83 49.77 16.59"/><polygon points="16.89 34.12 50.52 51.02 34.03 60.41 0.3 42.96 16.89 34.12"/><polygon points="100 42.13 66.98 59.69 50.23 51.05 83.39 33.37 100 42.13"/><polygon points="66.01 7.54 99.85 24.62 83.13 33.85 49.39 16.39 66.01 7.54"/><path d="M83.23,57.16c0-.74,0-1.47,0-2.55-5.15,2.74-9.92,5.26-14.66,7.85a3,3,0,0,1-1.77.44L50.3,54.61l-1.15.6-.25.1c-3.41,1.73-6.8,3.52-10.17,5.34l-4.8,2.5a2.17,2.17,0,0,1-1.8-.26c-2.67-1.46-5.41-2.79-8.13-4.17-2.21-1.12-4.42-2.23-6.95-3.49.06,6.9.09,13.44.23,20,0,.46.67,1,1.18,1.31,10,5.14,20,10.21,30,15.37a3.65,3.65,0,0,0,3.93,0q14.72-8,29.57-15.72a2.34,2.34,0,0,0,1.46-2.44C83.29,68.2,83.28,62.68,83.23,57.16Z"/></svg>
